<?xml version="1.0" encoding="utf-8"?><svg style="height:1.13rem;width:auto" xmlns="http://www.w3.org/2000/svg" focusable="false" viewBox="0 25 200 151" color="" aria-label="" aria-hidden="true" role="presentation" className="SvgIcon SvgIcon_color--black" ><path style="fill:#0B2739" d="M189,54.75l-25.3-29.3H33.15l-.7,1.4a13.5,13.5,0,0,0-.9,1.1,13.74,13.74,0,0,0-1.5,1.8L9.75,55A12.94,12.94,0,0,0,0,67.45v11.9l.2,3.8v.2c1.3,11,8.7,17.5,20.3,17.9V176h156.1v-74.7h.8c12.3,0,20.1-6.5,21.4-18l.2-2V67.55a13,13,0,0,0-10-12.8M34.45,43.55l5.3-6.3H158l3.4,3.8,11.2,13.3H25.75Zm121.2,23.1v13.2c-.1,6.7-2.7,9.3-9.4,9.3s-9.3-2.6-9.4-9.2V66.65Zm-31.1,11.7v1.5c-.1,6.7-2.7,9.3-9.4,9.3s-9.3-2.6-9.4-9.2V67h18.8v10.1a1.49,1.49,0,0,0-.1.6c0,.1.1.5.1.7m-62.4-11.7v13.2c-.1,6.7-2.7,9.3-9.4,9.3s-9.3-2.6-9.4-9.2V66.65Zm-31,13.2c0,5.1-1.7,6.8-2.9,7.7-.4.3-.9.5-1.4.8-.4.1-.7.2-1,.3a.1.1,0,0,0-.1.1h-.3l-.4.1c-.2,0-.6.1-1,.1h-.7a2.77,2.77,0,0,0-.9.1h-.6c-6.7,0-9.3-2.6-9.4-9.2V67.45l.1-.2v-.2c0-.1.2-.3.4-.4l.2-.1h18.2v13.3Zm46.6,84h-45V99.15a17.68,17.68,0,0,0,4.5-3c3.7,3.5,9,5.3,15.5,5.3s11.9-1.8,15.6-5.3a19.48,19.48,0,0,0,9.4,4.7Zm-3.3-84V66.65h18.8v13.2c-.1,6.7-2.7,9.3-9.4,9.3s-9.4-2.6-9.4-9.3m89.8,84H90v-63a19.11,19.11,0,0,0,9.5-4.8c3.7,3.5,9,5.3,15.5,5.3s11.9-1.8,15.6-5.3c3.7,3.5,9,5.3,15.5,5.3s11.9-1.8,15.6-5.3a12.42,12.42,0,0,0,2.6,1.9Zm22.6-84c-.1,6.7-2.7,9.2-9.4,9.2a15.82,15.82,0,0,1-3.2-.3h-.1a8.33,8.33,0,0,1-1.5-.4l-.5-.2a.31.31,0,0,1-.2-.1,5.9,5.9,0,0,0-.8-.4h-.1a6.73,6.73,0,0,1-1.5-1.4,11.67,11.67,0,0,1-1.7-6.4v-13h18.3l.2.1c.2.1.4.3.4.4v12.5Z"></path><path style="fill:#0B2739" d="M48.05,117.85a12.3,12.3,0,1,0,12.4,12.3,12.29,12.29,0,0,0-12.4-12.3m0,15.2a2.9,2.9,0,1,1,2.9-2.9,2.78,2.78,0,0,1-2.9,2.9"></path></svg>